<svg xmlns="http://www.w3.org/2000/svg" width="400" height="340"><linearGradient id="grad1" x1="0%" y1="0%" x2="100%" y2="0%"><stop offset="0%" style="stop-color:#a166ff;stop-opacity:1" /><stop offset="100%" style="stop-color:#9edff8;stop-opacity:1" /></linearGradient><path fill="url(#grad1)" d="M293.980753409935,257.3906404319257C286.04541420331014,268.255511099121,277.0937422447833,274.1869208282731,268.6966409370938,285.18922400317183C260.29953962940425,296.19152717807054,254.90662828609578,319.75317645664893,243.59814556379771,323.404459481318C232.28966284149965,327.05574250598704,213.4250247321532,312.2419956183653,200.84574460330543,307.09692215118616C188.26646447445768,301.951848684007,188.60603639276212,291.0594938327875,168.1224647907111,292.534018678243C147.63889318866006,294.0085435236985,97.91544996383189,322.30452107193605,77.9443149909992,315.9440712239191C57.97318001816651,309.5836213759021,45.32963781422515,274.40976878151895,48.295654953714916,254.3713195901413C51.26167209320468,234.33287039876365,90.21857868638442,217.01092564476338,95.74041782793779,195.71337607565312C101.26225696949116,174.41582650654286,70.49785092827892,136.59284758487738,81.42668980303517,126.58602217547977C92.35552867779143,116.57919676608216,142.34092730921608,143.47414362703242,161.3134510764753,135.67242361926748C180.28597484373452,127.87070361150253,179.2533190155237,90.01661249980219,195.26183240659046,79.77570212889009C211.27034579765723,69.53479175797798,244.6879821720634,62.20691376226236,257.36453142287587,74.22696139379485C270.0410806736883,86.24700902532734,267.6611858980198,132.7446673306129,271.3211279114651,151.89598791808507C274.9810699249104,171.04730850555723,271.8262587926513,177.78421623830857,279.32418350354754,189.13488491862773C286.8221082144438,200.4855535989469,313.86591452577824,208.62404074778368,316.3086761768428,220C318.7514378279074,231.37595925221632,301.91609261655987,246.5257697647304,293.980753409935,257.3906404319257" stroke="none" stroke-width="3"/></svg>