<?xml version="1.0" encoding="utf-8"?>
<!-- Generator: Adobe Illustrator 27.9.0, SVG Export Plug-In . SVG Version: 6.00 Build 0)  -->
<svg version="1.1" id="Layer_1" xmlns="http://www.w3.org/2000/svg" xmlns:xlink="http://www.w3.org/1999/xlink" x="0px" y="0px"
	 viewBox="0 0 164.3 164.3" style="enable-background:new 0 0 164.3 164.3;" xml:space="preserve">
<style type="text/css">
	.st0{fill:#3C424B;}
	.st1{fill:#D9807E;}
</style>
<path class="st0" d="M84.9,95.1c-0.4,0.4-1,0.8-1.6,1.2c-0.7,0.4-1.4,0.7-2.3,1.1c-0.9,0.3-1.9,0.6-3,0.8c-1.1,0.2-2.2,0.3-3.4,0.3
	c-2.1,0-3.9-0.3-5.6-0.9c-1.7-0.6-3-1.4-4.2-2.6c-1.1-1.1-2-2.5-2.6-4.1c-0.6-1.6-0.9-3.4-0.9-5.4c0-2.2,0.3-4,1-5.6s1.6-3,2.8-4
	c1.2-1.1,2.6-1.9,4.2-2.4s3.3-0.8,5.2-0.8c1.2,0,2.5,0.2,3.8,0.5c1.3,0.3,2.5,0.9,3.6,1.7s2,1.9,2.7,3.2s1.1,3,1.1,5.1
	c0,1.4-0.2,2.9-0.5,4.5H67.6c0,1,0.2,1.9,0.7,2.6s0.9,1.3,1.6,1.8s1.4,0.8,2.3,1c0.9,0.2,1.8,0.3,2.8,0.3c1.9,0,3.6-0.2,4.8-0.7
	c1.2-0.5,2.3-1,3.1-1.7L84.9,95.1L84.9,95.1z M74.4,77.6c-0.8,0-1.7,0.1-2.4,0.3c-0.8,0.2-1.4,0.6-2,1s-1.1,1-1.5,1.7
	c-0.4,0.7-0.6,1.4-0.7,2.2h12c0-1.6-0.4-2.9-1.3-3.9C77.6,78.1,76.2,77.6,74.4,77.6L74.4,77.6z"/>
<path class="st0" d="M103.4,90.3h0.3l5.5-17h6.8l-9.3,24.4H100L89.5,73.2h7.4L103.4,90.3L103.4,90.3z"/>
<polygon class="st1" points="25.1,70.1 25.1,76.9 12.8,85.1 12.8,85.8 25.1,94 25.1,100.8 5.2,87.5 5.2,83.3 "/>
<path class="st0" d="M44.5,63.5h10.2v21.1c0,2.4,0.1,4.8,0.4,7.2c0,0.2,0,0.3,0,0.5h3.1v5.4h-7.9l-0.6-3.1h-0.2
	c-0.3,0.6-0.8,1.1-1.3,1.6c-0.5,0.5-1.2,0.8-1.8,1.2c-0.7,0.3-1.4,0.6-2.2,0.8s-1.6,0.3-2.4,0.3c-1.5,0-3-0.2-4.3-0.7
	c-1.3-0.5-2.5-1.2-3.5-2.3c-1-1-1.8-2.3-2.4-3.9c-0.6-1.6-0.9-3.4-0.9-5.6s0.3-3.9,1-5.6c0.6-1.6,1.5-3,2.6-4.1c1.1-1.1,2.5-2,4-2.6
	c1.5-0.6,3.2-0.9,5-0.9c1,0,2,0.1,2.8,0.2s1.7,0.3,2.3,0.6v-4.5h-3.8V63.5L44.5,63.5z M43.2,92.9c1.2,0,2.3-0.3,3.3-0.9
	s1.6-1.5,1.9-2.6V79.1c-0.5-0.4-1.1-0.6-1.9-0.8C45.7,78.1,44.8,78,44,78s-1.7,0.2-2.6,0.4s-1.6,0.8-2.2,1.4
	c-0.6,0.6-1.1,1.5-1.5,2.5c-0.4,1-0.6,2.2-0.6,3.7c0,2.1,0.5,3.8,1.6,5S41.2,92.9,43.2,92.9L43.2,92.9z"/>
<polygon class="st1" points="139.3,70.1 139.3,76.9 151.6,85.1 151.6,85.8 139.3,94 139.3,100.8 159.2,87.5 159.2,83.3 "/>
<rect x="107.1" y="79.5" transform="matrix(0.3582 -0.9336 0.9336 0.3582 3.5587 169.6872)" class="st1" width="36.3" height="5.6"/>
</svg>
