<svg xmlns="http://www.w3.org/2000/svg" viewBox="0 0 832.51 281.93"><defs><style>.cls-1{fill:#ffa000;}.cls-2{fill:#fff;}.cls-3{fill:#d42128;}</style></defs><g id="Layer_2" data-name="Layer 2"><g id="Layer_1-2" data-name="Layer 1"><path class="cls-1" d="M154.31,192.62a6.59,6.59,0,0,1,0,11.42l-2.74,1.58-12.63,7.29L117,225.6a6.64,6.64,0,0,1-6.6,0l-22-12.69-12.63-7.29L73.05,204a6.59,6.59,0,0,1,0-11.42L75.79,191l12.63-7.3,22-12.68a6.64,6.64,0,0,1,6.6,0l22,12.68,12.63,7.3Z"/><path class="cls-1" d="M75.79,103.53h0l-12.62,7.29-9.41,5.43a6.44,6.44,0,0,0-3.23,5.58v43.46a6.45,6.45,0,0,0,9.68,5.58l3-1.71,25.26-14.58,9.41-5.44a6.45,6.45,0,0,0,3.22-5.58V100.11a6.45,6.45,0,0,0-9.67-5.59Zm12.63,7.29Z"/><path class="cls-1" d="M164.21,110.82h0l-12.63-7.29h0l-15.36-8.87a6.6,6.6,0,0,0-9.9,5.71v43.1a6.61,6.61,0,0,0,3.3,5.72l9.33,5.39,25.27,14.58,2.73,1.58a6.6,6.6,0,0,0,9.9-5.72v-43.1a6.58,6.58,0,0,0-3.3-5.71Zm-25.27,0Z"/><path class="cls-2" d="M252,206c-.05-.28-.1-.55-.16-.82h0A37.91,37.91,0,0,0,240,184.67l-.63-.56a37.53,37.53,0,0,0-5-3.6l-.12-.07-1.24-.72,0,0a37,37,0,0,0-5.63-2.52l-.78-.27h0a38,38,0,0,0-23.68,0h0c-.27.08-.53.17-.79.27a38,38,0,0,0-5.67,2.54h0l-1.15.65-.07.05a38.63,38.63,0,0,0-5.1,3.68c-.22.18-.43.37-.64.56a37.91,37.91,0,0,0-11.84,20.5h0c-.06.27-.11.54-.16.82a38.38,38.38,0,0,0,0,13.85l-.63.37-12.63,7.29-12.63,7.29h0L139,242.09h0l-12.63,7.29h0a25.27,25.27,0,0,1-25.26,0h0l-12.63-7.29h0l-12.63-7.3h0L63.16,227.5l-12.64-7.29-12.63-7.29A25.29,25.29,0,0,1,25.26,191V118.11A25.25,25.25,0,0,1,37.89,96.24h0L63.16,81.65l12.63-7.29,12.63-7.3.64-.36a38.35,38.35,0,0,0,5,3.6l.06,0,1.35.77a36.79,36.79,0,0,0,5.61,2.52l.79.27a38,38,0,0,0,23.68,0l.79-.27a37.63,37.63,0,0,0,5.6-2.51h0l1.34-.77.06,0a38.45,38.45,0,0,0,5-3.6l.63-.56a37.91,37.91,0,0,0,11.84-20.5h0c.06-.27.11-.54.16-.82a38.38,38.38,0,0,0,0-13.85c-.05-.28-.1-.55-.16-.83A37.84,37.84,0,0,0,138.94,9.65l-.63-.56a38.73,38.73,0,0,0-5.11-3.68L132,4.7a37.55,37.55,0,0,0-5.67-2.54c-.26-.1-.52-.19-.79-.27a38,38,0,0,0-23.68,0c-.27.08-.53.17-.79.27a37,37,0,0,0-5.6,2.5l-.07,0-1.07.62-.15.09a38.63,38.63,0,0,0-5.1,3.68c-.22.18-.43.37-.64.56A37.84,37.84,0,0,0,76.58,30.14h0c-.06.28-.11.55-.16.83a38.38,38.38,0,0,0,0,13.85l-.63.37L63.16,52.48,50.52,59.77,25.26,74.36,12.63,81.65h0A25.25,25.25,0,0,0,0,103.53V205.62A25.25,25.25,0,0,0,12.63,227.5h0l25.26,14.59,12.63,7.29L75.79,264l12.63,7.3,12.63,7.29a25.27,25.27,0,0,0,25.26,0l12.63-7.29,12.63-7.3,25.27-14.58,12.63-7.29.64-.37h0a38.44,38.44,0,0,0,5.15,3.71l0,0,1.07.61,0,0a36.72,36.72,0,0,0,5.71,2.57l.79.27a38,38,0,0,0,23.68,0l.79-.27a37.41,37.41,0,0,0,5.73-2.58l1-.58.08-.05a37.23,37.23,0,0,0,5.17-3.72h0l.63-.56a37.93,37.93,0,0,0,11.84-20.49c.06-.28.11-.55.16-.83A38.38,38.38,0,0,0,252,206ZM101.05,16h0Zm12.63,7.29a14.67,14.67,0,0,1,13.5,20.31,13.56,13.56,0,0,1-7.77,7.78,14.62,14.62,0,1,1-5.73-28.09ZM227.36,191h0Zm-6.92,35.39a14.62,14.62,0,1,1,7.78-7.77A13.54,13.54,0,0,1,220.44,226.42ZM202.1,191h0Zm0,43.77h0Zm25.26,0h0Z"/><circle class="cls-3" cx="214.73" cy="212.92" r="15.68"/><circle class="cls-3" cx="113.68" cy="37.89" r="15.68"/><path class="cls-2" d="M344.19,199.29a47.42,47.42,0,0,1-19.5-4.07,50.36,50.36,0,0,1-16-11.25,53.38,53.38,0,0,1,0-73.83,50.75,50.75,0,0,1,16-11.22A48.9,48.9,0,0,1,367,100.5a51.34,51.34,0,0,1,17.31,15.07l-18,9.56a31.11,31.11,0,0,0-9.86-7.59,28.28,28.28,0,0,0-24-.32,30,30,0,0,0-9.6,7,33.06,33.06,0,0,0-6.47,10.28,35.07,35.07,0,0,0,0,25.14,32.54,32.54,0,0,0,6.47,10.29,30.75,30.75,0,0,0,9.6,7,28,28,0,0,0,24.06-.32,31.56,31.56,0,0,0,9.82-7.62l18,9.63a52,52,0,0,1-17.31,15A47.12,47.12,0,0,1,344.19,199.29Z"/><path class="cls-2" d="M403,197.42V96.72h40.59a28.28,28.28,0,0,1,15.08,4.14,30.7,30.7,0,0,1,10.73,11.07,30.28,30.28,0,0,1,4,15.36A31.87,31.87,0,0,1,471,139.55a30.1,30.1,0,0,1-6.58,9.89,30.57,30.57,0,0,1-9.85,6.62l24.31,41.36H455.68l-23.29-39.56h-9.27v39.56ZM423.12,138h18a11.65,11.65,0,0,0,6-1.62,12.36,12.36,0,0,0,4.38-4.39,12.22,12.22,0,0,0,0-12.23,12.7,12.7,0,0,0-4.38-4.42,11.49,11.49,0,0,0-6-1.65h-18Z"/><path class="cls-2" d="M498.25,197.42V96.72h64.69v19.85H518.4v17h34.75V153.4H518.4v24.17h44.54v19.85Z"/><path class="cls-2" d="M613.61,96.72h22.93l37.09,100.7H652.24l-6.14-16.69H604.05l-6.14,16.69H576.52Zm-2.19,64.16h27.31L625,124Z"/><path class="cls-2" d="M753.21,96.72v19.85H723.13v80.85H703V116.57H672.9V96.72Z"/><path class="cls-2" d="M767.82,197.42V96.72h64.69v19.85H788v17h34.75V153.4H788v24.17h44.54v19.85Z"/></g></g></svg>