<svg xmlns="http://www.w3.org/2000/svg" fill="none" viewBox="129.5 280 779 477.9"><path fill="#fff" fill-rule="evenodd" d="m523.4 532.7 27.7-24.5v-62.7h-8.5v59l-19.2 16.9V402.8H515V521l-17.4-16.5V450H489v58.2l25.9 24.5v92.7h8.5v-92.7Z" clip-rule="evenodd"/><path fill="#fff" d="M501.5 444.7a8.2 8.2 0 1 1-16.5 0 8.2 8.2 0 0 1 16.5 0Z"/><path fill="#fff" fill-rule="evenodd" d="M493 444.6v.1a.3.3 0 0 0 0 .2h.4v-.2a.3.3 0 0 0 0-.2h-.2a.3.3 0 0 0-.2 0v.1Zm.2 8.4a8.2 8.2 0 1 0 0-16.5 8.2 8.2 0 0 0 0 16.5Z" clip-rule="evenodd"/><path fill="#fff" d="M527.4 400.6a8.2 8.2 0 1 1-16.5 0 8.2 8.2 0 0 1 16.5 0Z"/><path fill="#fff" fill-rule="evenodd" d="M518.9 400.5v.2l.1.1H519.3v-.1l.1-.1a.3.3 0 0 0 0-.2h-.2a.3.3 0 0 0-.2 0h-.1Zm.2 8.3a8.2 8.2 0 1 0 0-16.5 8.2 8.2 0 0 0 0 16.5Z" clip-rule="evenodd"/><path fill="#fff" d="M555.1 444.7a8.2 8.2 0 1 1-16.5 0 8.2 8.2 0 0 1 16.5 0Z"/><path fill="#fff" fill-rule="evenodd" d="M546.6 444.6v.1a.3.3 0 0 0 .1.2h.4v-.2a.3.3 0 0 0 0-.2h-.2a.3.3 0 0 0-.2 0v.1Zm.3 8.4a8.2 8.2 0 1 0 0-16.5 8.2 8.2 0 0 0 0 16.5Z" clip-rule="evenodd"/><path fill="#fff" d="M527.2 625.4a8.2 8.2 0 1 1-16.5 0 8.2 8.2 0 0 1 16.5 0Z"/><path fill="#fff" fill-rule="evenodd" d="M518.7 625.3v.1a.3.3 0 0 0 0 .2h.2v.1a.3.3 0 0 0 .2 0l.1-.2v-.2l-.1-.1h-.1a.3.3 0 0 0-.2 0v.1Zm.3 8.4a8.2 8.2 0 1 0 0-16.5 8.2 8.2 0 0 0 0 16.5Z" clip-rule="evenodd"/><path fill="#fff" d="M549.6 684.6V576.8l58.4-54-42.7-143.7 78-87.5 138.1-7.2s-79 20.5-115.4 64.2c-44.8 46.3-35.2 109.8-35.2 109.8l13.2 82.4-63 45-15.7 116.8-31.5 51v-39.8l15.8-29.2Z"/><path fill="#fff" fill-rule="evenodd" d="M785.6 283.7c.3 2.2-1 4.2-3.1 4.8h-.2a61.5 61.5 0 0 0-3.2 1 349.7 349.7 0 0 0-40 14.6c-24.2 10.4-52.3 26.1-69.8 47.2v.1l-.2.2a125.5 125.5 0 0 0-33.3 69.9 149.7 149.7 0 0 0-.8 36.2l13.6 85-63.6 45.5L569.4 704l-32 51.8a4.3 4.3 0 0 1-7.9-2.2v-41l15.8-29.2V575l57.9-53.4L560.6 378l80.7-90.6 139.9-7.3c2.2-.1 4 1.4 4.4 3.6Zm-35.5 6.5-104.8 5.5-75.2 84.4 42.7 144-59 54.5v107.1L538 714.9v23.8l23.2-37.6 15.9-117.7 62.2-44.5-12.7-79.8 4.2-.7-4.2.7V458.7a33 33 0 0 1-.3-2.8 158.2 158.2 0 0 1 1.1-35.8 134 134 0 0 1 35.5-74.5c18.8-22.5 48.3-38.9 72.7-49.5l14.5-6ZM461.8 499.3v24.4l22.4 20.3V575h8.5v-35L470.3 520v-20.7h-8.5Z" clip-rule="evenodd"/><path fill="#fff" d="M457.9 497.2a8.2 8.2 0 1 0 16.4 0 8.2 8.2 0 0 0-16.4 0Z"/><path fill="#fff" fill-rule="evenodd" d="M466.3 497.1v.1a.3.3 0 0 1 0 .2h-.4v-.2a.2.2 0 0 1 0-.2h.2a.3.3 0 0 1 .2 0v.1Zm-.2 8.4a8.2 8.2 0 1 1 0-16.5 8.2 8.2 0 0 1 0 16.5ZM576.2 499.3v24.4L553.8 544V575h-8.5v-35l22.4-20.1v-20.7h8.5Z" clip-rule="evenodd"/><path fill="#fff" d="M803.1 344.7c-18-5.3-15.7-24.7-15.7-24.7-10-1.2-21.4-.4-31.5 2.2 0 0 3 17.7-11 24.2-15.6 7-26.4-6.5-26.4-6.5-7.9 5-15.2 10.8-22 17.3 0 0 8.8 14.9 0 25.7-8.8 10.8-25.6 5.7-25.6 5.7a101 101 0 0 0-13.3 54.9 96.7 96.7 0 0 1 124-52.3c61 21.3 79.7 102.1 32.9 148.7-40.6 45.4-116.6 41.8-116.6 41.8 22 18.5 45.4 25.8 64.8 25.8 0 0-2-19.8 19.2-22.2a22.3 22.3 0 0 1 25.7 15.5 100 100 0 0 0 27-13.5s-9-15.7 6.7-27a19.4 19.4 0 0 1 27 2.3 80.4 80.4 0 0 0 22.6-31.5s-16.6-7-12.2-25.5c4.4-18.5 23.8-15.8 23.8-15.8 1.4-9.6 2-19.3 1.6-29 0 0-21.6 0-23.6-18.6-2.2-20.2 17-25.6 17-25.6a143 143 0 0 0-11.8-28.9s-19.3 8.8-28.1-6.2 4.4-27.8 4.4-27.8c-8.6-9-18.4-16.6-29.2-22.3 0 0-8.5 19.4-29.7 13.3Z"/><path fill="#fff" fill-rule="evenodd" d="M760.5 325.5c0 2-.1 4.4-.6 7.2-1.2 6-4.5 13.5-13.2 17.5a24.8 24.8 0 0 1-22.9-.6 31.1 31.1 0 0 1-5.9-4.2c-5.7 3.8-11.1 8-16.2 12.7.7 1.8 1.6 4.2 2.2 7a23.7 23.7 0 0 1-4.1 20.5 24.7 24.7 0 0 1-19.4 8.4c-2.8 0-5.3-.2-7.2-.6a105.4 105.4 0 0 0-10.3 31.2c7-10 17.3-20.8 30.7-29.2 22-13.8 52.4-21 89.5-8.2 64 22.3 83.4 106.8 34.4 155.6-21.1 23.6-51.3 34.3-75.7 39.2a215.6 215.6 0 0 1-31.2 3.8h-.3a95.8 95.8 0 0 0 48.2 17.4c.3-2.1.8-4.8 1.9-7.5 1.3-3.2 3.4-6.5 6.9-9.3 3.5-2.7 8.1-4.7 14-5.4a27.1 27.1 0 0 1 28.8 14.4 96.6 96.6 0 0 0 19.2-9.6 24 24 0 0 1 9.5-29c9.2-6.4 17.5-6 23.5-3.5 2.5 1 4.5 2.4 6 3.5 7.5-7 12.9-14.6 17.2-24a29 29 0 0 1-5.5-4.7c-4.4-5-8-12.7-5.4-23.5 2.6-11 10-16 16.4-18 3-.8 5.7-1.1 7.8-1.2.8-6.9 1.2-13.8 1.2-20.8-2.3-.3-5.4-1-8.5-2.2-6.6-2.7-14-8.4-15.2-19.7a26.6 26.6 0 0 1 9-24.1c2.6-2.1 5-3.6 7-4.5-2.3-7.7-5.1-13.9-8.7-21.1a37 37 0 0 1-8.4 1.5 22 22 0 0 1-21.3-10.8 25 25 0 0 1-1.3-23.4c1.1-2.6 2.5-4.7 3.7-6.3-6.7-6.6-14-12.3-21.9-16.9a32.8 32.8 0 0 1-5.7 6.5 27.4 27.4 0 0 1-26.8 5.2 24.8 24.8 0 0 1-17.5-17.2c-.9-3-1.2-5.7-1.3-7.8a85 85 0 0 0-22.6 1.7Zm123.4 58.3 3.7-1.7 1.9 3.7c5 10 9 18.2 12 29.6l1.2 4.1-4 1.2h-.1a14.3 14.3 0 0 0-2.3.9c-1.5.7-3.5 1.8-5.4 3.4a18.2 18.2 0 0 0-6.2 16.8c.8 7.2 5.2 10.7 10 12.7a28.2 28.2 0 0 0 9.3 2h4.3v4c.4 10-.1 20-1.6 29.9l-.6 4.1-4.2-.5h-.5a21.5 21.5 0 0 0-7.9.8 15 15 0 0 0-10.6 11.8c-1.9 7.7.6 12.7 3.4 15.9a20.6 20.6 0 0 0 6.2 4.7l4 1.6-1.7 4a84.7 84.7 0 0 1-23.8 33l-3.2 2.8-2.8-3.3-.3-.3c-.2-.3-.6-.6-1.2-1-1-1-2.5-2-4.4-2.8-3.6-1.5-8.7-2-15.3 2.6-6.6 4.7-7.7 10-7.5 14a19.1 19.1 0 0 0 1.9 7.2v.2l2 3.3-3 2.2a104.3 104.3 0 0 1-28.2 14.1l-4.4 1.5-1.1-4.5-.1-.4-.7-1.6c-.6-1.4-1.6-3.1-3.1-4.8-3-3.3-8-6.6-17.2-5.5a19 19 0 0 0-9.9 3.6 14 14 0 0 0-4.2 5.8 19.3 19.3 0 0 0-1.4 8.1v.1l.5 4.7h-4.7c-20.4 0-44.8-7.7-67.5-26.8a4.3 4.3 0 0 1 2.9-7.5h.2a55.3 55.3 0 0 0 3 0c2 0 5.1 0 9-.2 7.5-.3 18-1.3 29.8-3.6 23.7-4.8 51.8-15 71.2-36.6v-.1l.2-.1c44.6-44.4 26.8-121.4-31.2-141.6-34.5-12-62.1-5.2-82.2 7.3a90.8 90.8 0 0 0-36.5 42.2 4.3 4.3 0 0 1-8.3-1.3c0-10.5.5-19.1 2.6-28 2-8.9 5.5-17.8 11.2-28.9l1.6-3.1 3.4 1h.1a17 17 0 0 0 2.2.5c1.5.3 3.6.6 6 .5 4.6 0 9.5-1.3 12.8-5.3 3.2-4 3.4-8.9 2.4-13.3a29.4 29.4 0 0 0-2.7-7.5h-.1l-1.7-3 2.4-2.3a148 148 0 0 1 22.7-17.8l3.2-2 2.4 3a12 12 0 0 0 1.5 1.5c1 1 2.6 2.2 4.6 3.3 3.8 2 9 3.3 15.2.4 5.4-2.5 7.6-7 8.4-11.4a26.3 26.3 0 0 0 .3-8v-.2l-.7-3.8 3.8-1a92 92 0 0 1 33-2.4l4.2.5-.5 4.3a13.6 13.6 0 0 0 0 2.4c0 1.7.3 3.9 1 6.2 1.3 4.5 4.4 9.4 11.7 11.5 9 2.6 15-.2 18.8-3.5a24.4 24.4 0 0 0 5.8-7.4l1.9-4.2 4 2.1c11.3 6 21.4 13.9 30.3 23.2l2.9 3-3 3-.4.4a22.9 22.9 0 0 0-4.2 6.5c-1.8 4.2-2.7 9.7.9 15.7 3.3 5.6 8.4 6.9 13.4 6.6a28.6 28.6 0 0 0 9.2-2.2Z" clip-rule="evenodd"/><path fill="#fff" d="M488.4 684.5V576.7l-58.4-54L472.7 379l-78-87.5-138.1-7.2s79 20.5 115.4 64.2c44.8 46.3 35.2 109.8 35.2 109.8L394 540.7l63 45 15.7 116.8 31.5 51v-39.8l-15.8-29.2Z"/><path fill="#fff" fill-rule="evenodd" d="M252.4 283.6c-.3 2.2 1 4.2 3.1 4.8h.2l.7.2a177.7 177.7 0 0 1 11.8 3.6c7.9 2.6 18.8 6.4 30.8 11.7 24 10.5 52.2 26.2 69.7 47.3v.1l.2.2a125.5 125.5 0 0 1 33.3 69.9 149.7 149.7 0 0 1 .9 35.7l-.1.5-13.6 85 63.6 45.5L468.6 704l32 51.8a4.3 4.3 0 0 0 7.9-2.2v-41l-15.8-29.2V574.8l-57.9-53.4L477.4 378l-80.7-90.6-139.9-7.3c-2.2-.1-4 1.4-4.4 3.6Zm35.5 6.5 104.8 5.5 75.2 84.4-42.7 144.1 59 54.4v107.1l15.8 29.2v23.8L476.8 701l-15.9-117.7-62.2-44.5 12.7-79.8-4.2-.7 4.2.7V458.6a33.3 33.3 0 0 0 .3-2.8 158.2 158.2 0 0 0-1.1-35.8 134 134 0 0 0-35.5-74.5c-18.8-22.5-48.3-38.9-72.7-49.5l-14.5-6Z" clip-rule="evenodd"/><path fill="#fff" d="M234.9 345.6c18-5.3 15.7-24.7 15.7-24.7 10-1.2 21.3-.4 31.5 2.2 0 0-3 17.7 11 24.2 15.6 7.1 26.4-6.5 26.4-6.5 7.9 5 15.2 10.8 22 17.3 0 0-8.8 15 0 25.7 8.8 10.8 25.6 5.7 25.6 5.7a101 101 0 0 1 13.3 54.9 96.7 96.7 0 0 0-124-52.2c-61 21.2-79.7 102-32.9 148.6 40.6 45.4 116.6 41.9 116.6 41.9a102.2 102.2 0 0 1-64.8 25.7s2-19.8-19.2-22.2c-21.2-2.5-25.7 15.5-25.7 15.5a100 100 0 0 1-27-13.5s9-15.7-6.7-27c-15.7-11.2-27 2.3-27 2.3a80.4 80.4 0 0 1-22.6-31.5s16.6-7 12.2-25.5c-4.4-18.5-23.8-15.8-23.8-15.8-1.4-9.6-2-19.3-1.6-29 0 0 21.6 0 23.6-18.5 2.2-20.3-17-25.7-17-25.7 3-11 6.7-18.9 11.8-28.9 0 0 19.3 8.8 28.1-6.1 8.8-15-4.4-27.8-4.4-27.8 8.6-9 18.4-16.7 29.2-22.4 0 0 8.5 19.5 29.7 13.3Z"/><path fill="#fff" fill-rule="evenodd" d="M277.5 326.4c0 2 0 4.5.6 7.2 1.2 6 4.5 13.5 13.2 17.5a24.8 24.8 0 0 0 22.9-.6 31 31 0 0 0 5.9-4.2c5.7 3.8 11.1 8 16.2 12.7-.7 1.8-1.6 4.2-2.2 7a23.7 23.7 0 0 0 4.1 20.5 24.7 24.7 0 0 0 19.4 8.4c2.8 0 5.3-.2 7.2-.5a105.4 105.4 0 0 1 10.3 31.1c-7-10-17.3-20.8-30.7-29.2-22-13.8-52.4-21-89.5-8.2-64 22.3-83.4 106.9-34.4 155.6 21.1 23.7 51.3 34.4 75.7 39.2 12.3 2.5 23.3 3.5 31.2 3.8h.3a95.8 95.8 0 0 1-48.2 17.4c-.3-2.1-.8-4.7-1.9-7.5a22.5 22.5 0 0 0-6.9-9.3 27.3 27.3 0 0 0-14-5.4 27.1 27.1 0 0 0-28.8 14.4 96.6 96.6 0 0 1-19.2-9.6 24 24 0 0 0-9.5-29c-9.2-6.4-17.5-6-23.5-3.5-2.5 1-4.5 2.4-6 3.6a74.9 74.9 0 0 1-17.2-24 29 29 0 0 0 5.5-4.8c4.4-5 8-12.7 5.4-23.5-2.6-11-10-16-16.4-17.9-3-.9-5.7-1.2-7.8-1.3-.8-6.8-1.2-13.8-1.2-20.8 2.3-.3 5.4-1 8.5-2.2 6.6-2.7 14-8.4 15.2-19.7a26.6 26.6 0 0 0-9-24c-2.6-2.2-5-3.7-7-4.6 2.3-7.7 5.1-13.9 8.7-21.1a37 37 0 0 0 8.4 1.5 22 22 0 0 0 21.3-10.8 25 25 0 0 0 1.3-23.3 33.3 33.3 0 0 0-3.7-6.4c6.7-6.6 14-12.3 21.9-16.8 1.3 1.9 3.2 4.2 5.7 6.4a27.4 27.4 0 0 0 26.8 5.2 24.8 24.8 0 0 0 17.5-17.2c.9-3 1.2-5.6 1.3-7.7a85 85 0 0 1 22.6 1.6Zm-123.4 58.4-3.7-1.7-1.9 3.6a147 147 0 0 0-12 29.7l-1.2 4 4 1.2h.1a14.3 14.3 0 0 1 2.3 1c1.5.6 3.5 1.7 5.4 3.4 3.6 3.1 7 8.2 6.2 16.7-.8 7.2-5.2 10.8-10 12.7a28.3 28.3 0 0 1-9.4 2h-4.2v4.1c-.4 10 .1 20 1.6 29.8l.6 4.2 4.2-.6h.5a21.5 21.5 0 0 1 7.9.8 15 15 0 0 1 10.6 11.8c1.9 7.7-.6 12.7-3.4 15.9a20.6 20.6 0 0 1-6.2 4.7l-4 1.7 1.7 3.9a84.7 84.7 0 0 0 23.8 33l3.2 2.9 2.8-3.3.3-.4 1.2-1c1-1 2.5-2 4.4-2.8 3.6-1.4 8.7-2 15.3 2.6 6.6 4.7 7.7 10 7.5 14a19.1 19.1 0 0 1-1.9 7.3v.1l-2 3.3 3 2.2c9.6 7.2 21.3 11.8 28.2 14.1l4.4 1.5 1.1-4.4v-.1l.1-.4.7-1.6c.6-1.4 1.6-3.1 3.1-4.8 3-3.3 8-6.6 17.2-5.5 4.7.5 7.8 2 9.9 3.6a14 14 0 0 1 4.2 5.8 19.3 19.3 0 0 1 1.4 8.1v.1l-.5 4.7h4.7c20.4 0 44.8-7.7 67.5-26.8a4.3 4.3 0 0 0-2.9-7.5h-.2a55.3 55.3 0 0 1-3 0l-9-.1c-7.5-.4-18-1.4-29.8-3.7-23.7-4.7-51.8-15-71.2-36.6v-.1l-.2-.1c-44.6-44.4-26.8-121.4 31.2-141.6 34.5-12 62.1-5.2 82.2 7.3a90.8 90.8 0 0 1 36.5 42.3 4.3 4.3 0 0 0 8.3-1.4c0-10.5-.5-19.1-2.6-28-2-8.8-5.5-17.7-11.2-28.9l-1.6-3-3.4 1h-.6a28 28 0 0 1-7.6 1c-4.7-.1-9.6-1.4-12.9-5.4-3.2-4-3.4-8.9-2.4-13.3a29.4 29.4 0 0 1 2.7-7.5l1.8-3-2.4-2.3a148 148 0 0 0-22.7-17.8l-3.2-2-2.4 3a12 12 0 0 1-1.5 1.5c-1 1-2.6 2.2-4.6 3.3-3.8 2-9 3.3-15.2.4-5.4-2.4-7.6-7-8.4-11.4a26.3 26.3 0 0 1-.3-8v-.2l.7-3.8-3.8-1a92 92 0 0 0-33-2.3l-4.2.5.5 4.2a13.6 13.6 0 0 1 0 2.5c0 1.6-.3 3.8-1 6.1a16.3 16.3 0 0 1-11.7 11.5c-9 2.6-15-.1-18.8-3.5a24.4 24.4 0 0 1-5.8-7.3v-.1l-1.9-4.2-4 2.2a117 117 0 0 0-30.3 23.1l-2.9 3 3 3a12.3 12.3 0 0 1 1.5 1.8c1 1.2 2.2 3 3.1 5.1 1.8 4.3 2.7 9.7-.9 15.7-3.3 5.6-8.4 6.9-13.4 6.6a28.6 28.6 0 0 1-9.1-2.1h-.1Z" clip-rule="evenodd"/><path fill="#fff" d="M580.2 498.6a8.2 8.2 0 1 1-16.5 0 8.2 8.2 0 0 1 16.5 0Z"/><path fill="#fff" fill-rule="evenodd" d="M571.7 498.5v.2a.2.2 0 0 0 .1.2h.1a.3.3 0 0 0 .2 0v-.2h.1a.3.3 0 0 0 0-.2l-.1-.1H571.8v.1Zm.2 8.4a8.2 8.2 0 1 0 0-16.5 8.2 8.2 0 0 0 0 16.5Z" clip-rule="evenodd"/></svg>