<svg xmlns="http://www.w3.org/2000/svg" viewBox="0 0 480 480" fill="none" stroke="#FFF" opacity="0.03"><path d="M.5 480V.5H480M3.267 480V.5M8.805 480V.5M16.189 480V.5M27.262 480V.5M40.184 480V.5M55.874 480V.5M74.33 480V.5M95.557 480V.5M120.476 480V.5m32.3 479.5V.5M191.538 480V.5M243.219 480V.5M305.055 480V.5M383.5 480V.5M.5 3.267H480M.5 8.805H480M.5 16.189H480M.5 27.262H480M.5 40.184H480M.5 55.874H480M.5 74.33H480M.5 95.557H480M.5 120.476H480M.5 152.776H480M.5 191.538H480M.5 243.219H480M.5 305.055H480M.5 383.5H480"></path></svg>